# xmcd
#
# Track frame offsets: 
#        167
#        14017
#        32107
#        47910
#        71177
#        87147
#        104380
#        123717
#        143530
#        163807
#        186160
#
# Disc length: 2931 seconds
#
# Revision: 1
# Processed by: cddbd v1.5.2PL0 Copyright (c) Steve Scherf et al.
# Submitted via: ExactAudioCopyFreeDBPlugin 1.0
#
DISCID=9e0b710b
DTITLE=JW Roy - Keep It Coming
DYEAR=2002
DGENRE=Folk/Rock
TTITLE0=Pieces Of The Pie
TTITLE1=Get Ready
TTITLE2=If You Want It
TTITLE3=Fool To Rush On
TTITLE4=Anytime
TTITLE5=No Time Is On
TTITLE6=Rivers's Promise
TTITLE7=Right Lane Shane
TTITLE8=Don't Need
TTITLE9=Sneakers and Leather
TTITLE10=So Long
EXTD=YEAR: 2002 ID3G: 0
EXTT0=
EXTT1=
EXTT2=
EXTT3=
EXTT4=
EXTT5=
EXTT6=
EXTT7=
EXTT8=
EXTT9=
EXTT10=
PLAYORDER=
